<svg width="800" height="600" viewBox="0 0 800 600" xmlns="http://www.w3.org/2000/svg">
  <!-- Background -->
  <rect width="100%" height="100%" fill="#e0f2f1" />
  
  <!-- Sky -->
  <rect width="100%" height="250" fill="#87CEEB" />
  
  <!-- Clouds -->
  <ellipse cx="100" cy="100" rx="40" ry="20" fill="#FFFFFF" />
  <ellipse cx="130" cy="90" rx="50" ry="25" fill="#FFFFFF" />
  <ellipse cx="160" cy="105" rx="35" ry="18" fill="#FFFFFF" />
  
  <ellipse cx="600" cy="70" rx="60" ry="30" fill="#FFFFFF" />
  <ellipse cx="650" cy="60" rx="40" ry="20" fill="#FFFFFF" />
  <ellipse cx="700" cy="75" rx="50" ry="25" fill="#FFFFFF" />
  
  <!-- Sun -->
  <circle cx="700" cy="80" r="40" fill="#FFD700" />
  
  <!-- Grass -->
  <rect width="100%" height="350" y="250" fill="#7CFC00" />
  
  <!-- Main Building -->
  <rect x="200" y="150" width="400" height="300" fill="#F5F5DC" />
  <rect x="250" y="100" width="300" height="50" fill="#CD853F" />
  <polygon points="250,100 550,100 400,40" fill="#8B4513" />
  
  <!-- Windows -->
  <g id="windows" fill="#87CEFA">
    <rect x="250" y="200" width="50" height="70" />
    <rect x="350" y="200" width="50" height="70" />
    <rect x="450" y="200" width="50" height="70" />
    <rect x="250" y="300" width="50" height="70" />
    <rect x="350" y="300" width="50" height="70" />
    <rect x="450" y="300" width="50" height="70" />
  </g>
  
  <!-- Door -->
  <rect x="350" y="370" width="100" height="80" fill="#8B4513" />
  <rect x="385" y="400" width="30" height="50" fill="#A0522D" />
  <circle cx="405" cy="420" r="5" fill="#FFD700" />
  
  <!-- Steps -->
  <rect x="340" y="450" width="120" height="10" fill="#A9A9A9" />
  <rect x="330" y="460" width="140" height="10" fill="#A9A9A9" />
  <rect x="320" y="470" width="160" height="10" fill="#A9A9A9" />
  
  <!-- Trees -->
  <g id="tree1">
    <rect x="100" y="350" width="20" height="100" fill="#8B4513" />
    <circle cx="110" cy="330" r="60" fill="#228B22" />
  </g>
  
  <g id="tree2">
    <rect x="680" y="350" width="20" height="100" fill="#8B4513" />
    <circle cx="690" cy="330" r="60" fill="#228B22" />
  </g>
  
  <!-- Pathway -->
  <path d="M 400 480 L 400 550 C 300 550, 200 550, 100 550" fill="none" stroke="#D3D3D3" stroke-width="20" />
  
  <!-- Flag -->
  <rect x="400" y="40" width="5" height="60" fill="#696969" />
  <rect x="405" y="40" width="30" height="20" fill="#FF0000" />
  
  <!-- Students -->
  <circle cx="200" cy="520" r="15" fill="#FFD700" />
  <rect x="195" y="535" width="10" height="25" fill="#FF6347" />
  <rect x="190" y="560" width="8" height="20" fill="#1E90FF" />
  <rect x="202" y="560" width="8" height="20" fill="#1E90FF" />
  
  <circle cx="500" cy="500" r="15" fill="#FFD700" />
  <rect x="495" y="515" width="10" height="25" fill="#32CD32" />
  <rect x="490" y="540" width="8" height="20" fill="#1E90FF" />
  <rect x="502" y="540" width="8" height="20" fill="#1E90FF" />
</svg> 