<svg width="1200" height="800" viewBox="0 0 1200 800" xmlns="http://www.w3.org/2000/svg">
  <!-- Background -->
  <rect width="100%" height="100%" fill="#0057b7" />
  
  <!-- Grid Pattern -->
  <defs>
    <pattern id="grid" width="50" height="50" patternUnits="userSpaceOnUse">
      <path d="M 50 0 L 0 0 0 50" fill="none" stroke="#ffffff10" stroke-width="1"/>
    </pattern>
  </defs>
  <rect width="100%" height="100%" fill="url(#grid)" />

  <!-- Building -->
  <rect x="150" y="400" width="900" height="300" fill="#00428C" />
  <rect x="200" y="300" width="800" height="100" fill="#00428C" />
  <rect x="250" y="200" width="700" height="100" fill="#00428C" />
  
  <!-- Windows -->
  <g id="windows">
    <rect x="220" y="430" width="60" height="80" fill="#80B3FF" />
    <rect x="320" y="430" width="60" height="80" fill="#80B3FF" />
    <rect x="420" y="430" width="60" height="80" fill="#80B3FF" />
    <rect x="520" y="430" width="60" height="80" fill="#80B3FF" />
    <rect x="620" y="430" width="60" height="80" fill="#80B3FF" />
    <rect x="720" y="430" width="60" height="80" fill="#80B3FF" />
    <rect x="820" y="430" width="60" height="80" fill="#80B3FF" />
    <rect x="920" y="430" width="60" height="80" fill="#80B3FF" />
    
    <rect x="270" y="330" width="60" height="60" fill="#80B3FF" />
    <rect x="370" y="330" width="60" height="60" fill="#80B3FF" />
    <rect x="470" y="330" width="60" height="60" fill="#80B3FF" />
    <rect x="570" y="330" width="60" height="60" fill="#80B3FF" />
    <rect x="670" y="330" width="60" height="60" fill="#80B3FF" />
    <rect x="770" y="330" width="60" height="60" fill="#80B3FF" />
    <rect x="870" y="330" width="60" height="60" fill="#80B3FF" />
    
    <rect x="320" y="230" width="60" height="60" fill="#80B3FF" />
    <rect x="420" y="230" width="60" height="60" fill="#80B3FF" />
    <rect x="520" y="230" width="60" height="60" fill="#80B3FF" />
    <rect x="620" y="230" width="60" height="60" fill="#80B3FF" />
    <rect x="720" y="230" width="60" height="60" fill="#80B3FF" />
    <rect x="820" y="230" width="60" height="60" fill="#80B3FF" />
  </g>
  
  <!-- Entrance -->
  <rect x="520" y="550" width="160" height="150" fill="#003B7A" />
  <rect x="550" y="600" width="100" height="100" fill="#66A3FF" />
  
  <!-- Trees -->
  <circle cx="150" cy="580" r="60" fill="#00A86B" />
  <rect x="140" y="580" width="20" height="120" fill="#8B4513" />
  
  <circle cx="1050" cy="580" r="60" fill="#00A86B" />
  <rect x="1040" y="580" width="20" height="120" fill="#8B4513" />
  
  <!-- Students -->
  <circle cx="400" cy="650" r="20" fill="#FFD700" />
  <rect x="390" y="670" width="20" height="30" fill="#FF6347" />
  <rect x="390" y="700" width="8" height="25" fill="#1E90FF" />
  <rect x="402" y="700" width="8" height="25" fill="#1E90FF" />
  
  <circle cx="450" cy="650" r="20" fill="#FFD700" />
  <rect x="440" y="670" width="20" height="30" fill="#32CD32" />
  <rect x="440" y="700" width="8" height="25" fill="#1E90FF" />
  <rect x="452" y="700" width="8" height="25" fill="#1E90FF" />
  
  <circle cx="750" cy="650" r="20" fill="#FFD700" />
  <rect x="740" y="670" width="20" height="30" fill="#9932CC" />
  <rect x="740" y="700" width="8" height="25" fill="#1E90FF" />
  <rect x="752" y="700" width="8" height="25" fill="#1E90FF" />
  
  <circle cx="800" cy="650" r="20" fill="#FFD700" />
  <rect x="790" y="670" width="20" height="30" fill="#FF6347" />
  <rect x="790" y="700" width="8" height="25" fill="#1E90FF" />
  <rect x="802" y="700" width="8" height="25" fill="#1E90FF" />
  
  <!-- Flag -->
  <rect x="600" y="100" width="5" height="100" fill="#D3D3D3" />
  <rect x="605" y="100" width="40" height="25" fill="#FF0000" />
  
  <!-- Sun -->
  <circle cx="900" cy="120" r="60" fill="#FFD700" />
  <circle cx="900" cy="120" r="50" fill="#FFA500" />
</svg> 