<svg width="150" height="150" viewBox="0 0 150 150" xmlns="http://www.w3.org/2000/svg">
  <!-- Background Circle -->
  <circle cx="75" cy="75" r="70" fill="#0070f3" />
  
  <!-- Book Shape -->
  <path d="M45,50 L105,50 L105,100 Q75,80 45,100 Z" fill="#ffffff" stroke="#0057b7" stroke-width="3" />

  <!-- Pages -->
  <path d="M48,55 L102,55" stroke="#0057b7" stroke-width="2" />
  <path d="M48,65 L102,65" stroke="#0057b7" stroke-width="2" />
  <path d="M48,75 L102,75" stroke="#0057b7" stroke-width="2" />
  <path d="M48,85 L102,85" stroke="#0057b7" stroke-width="2" />
  
  <!-- Text -->
  <text x="75" y="115" font-family="Arial, sans-serif" font-size="24" font-weight="bold" text-anchor="middle" fill="#ffffff">FGS</text>
  <text x="75" y="130" font-family="Arial, sans-serif" font-size="12" text-anchor="middle" fill="#ffffff">SCHOOL</text>
  
  <!-- Graduation Cap -->
  <path d="M75,30 L100,40 L75,50 L50,40 Z" fill="#ffffff" />
  <path d="M95,40 L95,55 M95,55 Q90,60 75,60 Q60,60 55,55 M75,50 L75,60" stroke="#ffffff" stroke-width="2" fill="none" />
  <rect x="70" y="25" width="10" height="5" fill="#ffffff" />
</svg> 